<?xml version="1.0" encoding="UTF-8" standalone="no"?>
<!DOCTYPE svg PUBLIC "-//W3C//DTD SVG 1.1//EN"
 "http://www.w3.org/Graphics/SVG/1.1/DTD/svg11.dtd">
<!-- Generated by graphviz version 2.40.1 (20161225.0304)
 -->
<!-- Title: %3 Pages: 1 -->
<svg width="581pt" height="394pt"
 viewBox="0.00 0.00 581.00 394.00" xmlns="http://www.w3.org/2000/svg" xmlns:xlink="http://www.w3.org/1999/xlink">
<g id="graph0" class="graph" transform="scale(1 1) rotate(0) translate(4 390)">
<title>%3</title>
<polygon fill="#ffffff" stroke="transparent" points="-4,4 -4,-390 577,-390 577,4 -4,4"/>
<g id="clust1" class="cluster">
<title>cluster_139_0</title>
<polygon fill="none" stroke="#000000" points="433,-109 433,-161 565,-161 565,-109 433,-109"/>
</g>
<g id="clust2" class="cluster">
<title>cluster_139_1</title>
<polygon fill="none" stroke="#000000" points="155,-109 155,-161 307,-161 307,-109 155,-109"/>
</g>
<!-- x1.1 -->
<g id="node1" class="node">
<title>x1.1</title>
<ellipse fill="none" stroke="#0000ff" cx="27" cy="-368" rx="27" ry="18"/>
<text text-anchor="middle" x="27" y="-364.3" font-family="Times,serif" font-size="14.00" fill="#000000">x1</text>
</g>
<!-- 130 -->
<g id="node9" class="node">
<title>130</title>
<path fill="none" stroke="#000000" d="M526.5,-313C526.5,-313 471.5,-313 471.5,-313 465.5,-313 459.5,-307 459.5,-301 459.5,-301 459.5,-289 459.5,-289 459.5,-283 465.5,-277 471.5,-277 471.5,-277 526.5,-277 526.5,-277 532.5,-277 538.5,-283 538.5,-289 538.5,-289 538.5,-301 538.5,-301 538.5,-307 532.5,-313 526.5,-313"/>
<text text-anchor="middle" x="499" y="-291.3" font-family="Times,serif" font-size="14.00" fill="#000000">TypeCheck</text>
</g>
<!-- x1.1&#45;&gt;130 -->
<g id="edge8" class="edge">
<title>x1.1&#45;&gt;130</title>
<path fill="none" stroke="#000000" d="M47.8281,-356.1041C52.6807,-353.7546 57.9181,-351.5418 63,-350 134.3061,-328.3663 350.6435,-307.7249 449.1679,-299.1571"/>
<polygon fill="#000000" stroke="#000000" points="449.5119,-302.6405 459.1738,-298.2933 448.9098,-295.6665 449.5119,-302.6405"/>
</g>
<!-- 165 -->
<g id="node13" class="node">
<title>165</title>
<path fill="none" stroke="#000000" d="M286.5,-153C286.5,-153 175.5,-153 175.5,-153 169.5,-153 163.5,-147 163.5,-141 163.5,-141 163.5,-129 163.5,-129 163.5,-123 169.5,-117 175.5,-117 175.5,-117 286.5,-117 286.5,-117 292.5,-117 298.5,-123 298.5,-129 298.5,-129 298.5,-141 298.5,-141 298.5,-147 292.5,-153 286.5,-153"/>
<text text-anchor="middle" x="231" y="-131.3" font-family="Times,serif" font-size="14.00" fill="#000000">call fallback_function</text>
</g>
<!-- x1.1&#45;&gt;165 -->
<g id="edge28" class="edge">
<title>x1.1&#45;&gt;165</title>
<path fill="none" stroke="#000000" d="M34.3181,-350.5791C51.1258,-312.5838 96.0952,-221.6249 161,-171 166.9265,-166.3774 173.5376,-162.0793 180.2654,-158.1798"/>
<polygon fill="#000000" stroke="#000000" points="182.3882,-161.0065 189.4589,-153.1162 179.011,-154.875 182.3882,-161.0065"/>
</g>
<!-- y1.1 -->
<g id="node2" class="node">
<title>y1.1</title>
<ellipse fill="none" stroke="#0000ff" cx="243" cy="-368" rx="27" ry="18"/>
<text text-anchor="middle" x="243" y="-364.3" font-family="Times,serif" font-size="14.00" fill="#000000">y1</text>
</g>
<!-- y1.1&#45;&gt;130 -->
<g id="edge6" class="edge">
<title>y1.1&#45;&gt;130</title>
<path fill="none" stroke="#000000" d="M263.978,-356.5501C268.8229,-354.1775 274.0192,-351.8425 279,-350 335.9848,-328.9199 404.2164,-313.2677 449.4251,-304.16"/>
<polygon fill="#000000" stroke="#000000" points="450.1449,-307.5854 459.2726,-302.2063 448.7827,-300.7193 450.1449,-307.5854"/>
</g>
<!-- y1.1&#45;&gt;165 -->
<g id="edge26" class="edge">
<title>y1.1&#45;&gt;165</title>
<path fill="none" stroke="#000000" d="M221.3838,-356.5473C212.4048,-350.5431 202.9408,-342.2799 198,-332 167.0029,-267.5067 172.0595,-237.688 198,-171 199.2996,-167.659 201.0701,-164.4396 203.1205,-161.3928"/>
<polygon fill="#000000" stroke="#000000" points="206.0503,-163.3292 209.4815,-153.3053 200.5482,-159.0017 206.0503,-163.3292"/>
</g>
<!-- w1.1 -->
<g id="node3" class="node">
<title>w1.1</title>
<ellipse fill="none" stroke="#0000ff" cx="99" cy="-368" rx="27" ry="18"/>
<text text-anchor="middle" x="99" y="-364.3" font-family="Times,serif" font-size="14.00" fill="#000000">w1</text>
</g>
<!-- w1.1&#45;&gt;130 -->
<g id="edge3" class="edge">
<title>w1.1&#45;&gt;130</title>
<path fill="none" stroke="#000000" d="M119.8329,-356.12C124.6853,-353.7697 129.9213,-351.5525 135,-350 194.1508,-331.9178 211.8051,-340.9979 273,-332 333.8886,-323.0472 403.7721,-311.3935 449.5111,-303.5784"/>
<polygon fill="#000000" stroke="#000000" points="450.1948,-307.0123 459.4602,-301.8739 449.0128,-300.1129 450.1948,-307.0123"/>
</g>
<!-- w1.1&#45;&gt;165 -->
<g id="edge23" class="edge">
<title>w1.1&#45;&gt;165</title>
<path fill="none" stroke="#000000" d="M102.1747,-350.0997C109.4926,-313.1083 130.5206,-227.0201 176,-171 179.4616,-166.7361 183.5654,-162.8031 187.9476,-159.2273"/>
<polygon fill="#000000" stroke="#000000" points="190.1316,-161.9647 196.0577,-153.1822 185.9482,-156.3523 190.1316,-161.9647"/>
</g>
<!-- h1.1 -->
<g id="node4" class="node">
<title>h1.1</title>
<ellipse fill="none" stroke="#0000ff" cx="171" cy="-368" rx="27" ry="18"/>
<text text-anchor="middle" x="171" y="-364.3" font-family="Times,serif" font-size="14.00" fill="#000000">h1</text>
</g>
<!-- h1.1&#45;&gt;130 -->
<g id="edge4" class="edge">
<title>h1.1&#45;&gt;130</title>
<path fill="none" stroke="#000000" d="M191.9009,-356.3317C196.7498,-353.9704 201.9672,-351.6953 207,-350 212.7489,-348.0635 367.7801,-319.2636 449.5521,-304.1339"/>
<polygon fill="#000000" stroke="#000000" points="450.189,-307.5756 459.3855,-302.3151 448.9157,-300.6923 450.189,-307.5756"/>
</g>
<!-- h1.1&#45;&gt;165 -->
<g id="edge24" class="edge">
<title>h1.1&#45;&gt;165</title>
<path fill="none" stroke="#000000" d="M168.9745,-349.9996C166.0627,-319.5059 162.2452,-255.9384 174,-204 177.5563,-188.2867 179.322,-183.8799 189,-171 191.8773,-167.1707 195.2277,-163.4671 198.7576,-159.9854"/>
<polygon fill="#000000" stroke="#000000" points="201.1664,-162.5253 206.1611,-153.1817 196.4298,-157.3712 201.1664,-162.5253"/>
</g>
<!-- x2.1 -->
<g id="node5" class="node">
<title>x2.1</title>
<ellipse fill="none" stroke="#0000ff" cx="315" cy="-368" rx="27" ry="18"/>
<text text-anchor="middle" x="315" y="-364.3" font-family="Times,serif" font-size="14.00" fill="#000000">x2</text>
</g>
<!-- x2.1&#45;&gt;130 -->
<g id="edge7" class="edge">
<title>x2.1&#45;&gt;130</title>
<path fill="none" stroke="#000000" d="M336.5232,-356.7659C341.2481,-354.4329 346.2571,-352.0599 351,-350 383.4151,-335.9219 420.7178,-322.0741 449.7638,-311.7953"/>
<polygon fill="#000000" stroke="#000000" points="451.0049,-315.069 459.2786,-308.451 448.6838,-308.465 451.0049,-315.069"/>
</g>
<!-- x2.1&#45;&gt;165 -->
<g id="edge27" class="edge">
<title>x2.1&#45;&gt;165</title>
<path fill="none" stroke="#000000" d="M293.5204,-356.6635C288.7928,-354.3368 283.7717,-351.9923 279,-350 256.0437,-340.4151 240.4888,-352.2223 226,-332 189.9046,-281.6209 207.3958,-203.8989 220.7101,-162.7557"/>
<polygon fill="#000000" stroke="#000000" points="224.0797,-163.7169 223.9699,-153.1226 217.4491,-161.473 224.0797,-163.7169"/>
</g>
<!-- y2.1 -->
<g id="node6" class="node">
<title>y2.1</title>
<ellipse fill="none" stroke="#0000ff" cx="387" cy="-368" rx="27" ry="18"/>
<text text-anchor="middle" x="387" y="-364.3" font-family="Times,serif" font-size="14.00" fill="#000000">y2</text>
</g>
<!-- y2.1&#45;&gt;130 -->
<g id="edge5" class="edge">
<title>y2.1&#45;&gt;130</title>
<path fill="none" stroke="#000000" d="M406.5089,-355.2844C421.9829,-345.1987 444.0408,-330.8216 462.7346,-318.6373"/>
<polygon fill="#000000" stroke="#000000" points="464.8571,-321.4317 471.3236,-313.0391 461.0348,-315.5674 464.8571,-321.4317"/>
</g>
<!-- y2.1&#45;&gt;165 -->
<g id="edge25" class="edge">
<title>y2.1&#45;&gt;165</title>
<path fill="none" stroke="#000000" d="M364.8645,-357.4127C346.9767,-347.9103 322.1939,-332.4733 306,-313 268.2723,-267.6321 246.9756,-200.5381 237.3463,-163.0171"/>
<polygon fill="#000000" stroke="#000000" points="240.7324,-162.1295 234.9358,-153.261 233.9367,-163.8086 240.7324,-162.1295"/>
</g>
<!-- w2.1 -->
<g id="node7" class="node">
<title>w2.1</title>
<ellipse fill="none" stroke="#0000ff" cx="459" cy="-368" rx="27" ry="18"/>
<text text-anchor="middle" x="459" y="-364.3" font-family="Times,serif" font-size="14.00" fill="#000000">w2</text>
</g>
<!-- w2.1&#45;&gt;130 -->
<g id="edge1" class="edge">
<title>w2.1&#45;&gt;130</title>
<path fill="none" stroke="#000000" d="M468.2773,-351.0688C472.9995,-342.4509 478.8539,-331.7666 484.1815,-322.0437"/>
<polygon fill="#000000" stroke="#000000" points="487.3378,-323.5669 489.0738,-313.1153 481.199,-320.2032 487.3378,-323.5669"/>
</g>
<!-- w2.1&#45;&gt;165 -->
<g id="edge21" class="edge">
<title>w2.1&#45;&gt;165</title>
<path fill="none" stroke="#000000" d="M439.8686,-354.8801C412.5252,-335.6333 361.4404,-297.8031 324,-259 308.0309,-242.4497 271.9259,-192.7194 249.6935,-161.4956"/>
<polygon fill="#000000" stroke="#000000" points="252.4625,-159.3497 243.819,-153.2226 246.755,-163.4025 252.4625,-159.3497"/>
</g>
<!-- h2.1 -->
<g id="node8" class="node">
<title>h2.1</title>
<ellipse fill="none" stroke="#0000ff" cx="531" cy="-368" rx="27" ry="18"/>
<text text-anchor="middle" x="531" y="-364.3" font-family="Times,serif" font-size="14.00" fill="#000000">h2</text>
</g>
<!-- h2.1&#45;&gt;130 -->
<g id="edge2" class="edge">
<title>h2.1&#45;&gt;130</title>
<path fill="none" stroke="#000000" d="M523.4164,-350.7C519.7402,-342.3137 515.2353,-332.0369 511.1005,-322.6042"/>
<polygon fill="#000000" stroke="#000000" points="514.196,-320.948 506.9757,-313.1945 507.785,-323.7584 514.196,-320.948"/>
</g>
<!-- h2.1&#45;&gt;165 -->
<g id="edge22" class="edge">
<title>h2.1&#45;&gt;165</title>
<path fill="none" stroke="#000000" d="M511.9235,-354.8912C495.7137,-343.7508 471.8276,-327.3313 451,-313 403.8759,-280.5744 388.9621,-276.5982 345,-240 343.9584,-239.1329 277.0099,-171.9039 276,-171 271.8066,-167.2467 267.2834,-163.4048 262.7778,-159.6943"/>
<polygon fill="#000000" stroke="#000000" points="264.7365,-156.7768 254.7618,-153.2051 260.332,-162.2175 264.7365,-156.7768"/>
</g>
<!-- 139_in -->
<g id="node10" class="node">
<title>139_in</title>
<polygon fill="none" stroke="#000000" points="381,-240 354,-222 381,-204 408,-222 381,-240"/>
<text text-anchor="middle" x="381" y="-218.3" font-family="Times,serif" font-size="14.00" fill="#000000">If</text>
</g>
<!-- 130&#45;&gt;139_in -->
<g id="edge9" class="edge">
<title>130&#45;&gt;139_in</title>
<path fill="none" stroke="#000000" d="M459.4075,-279.2094C447.0112,-273.5592 433.5591,-266.6685 422,-259 413.9604,-253.6664 405.9065,-246.8092 399.0916,-240.4501"/>
<polygon fill="#000000" stroke="#000000" points="401.3569,-237.7719 391.7357,-233.3352 396.4902,-242.8033 401.3569,-237.7719"/>
</g>
<!-- 68 -->
<g id="node12" class="node">
<title>68</title>
<path fill="none" stroke="#000000" d="M544.5,-153C544.5,-153 453.5,-153 453.5,-153 447.5,-153 441.5,-147 441.5,-141 441.5,-141 441.5,-129 441.5,-129 441.5,-123 447.5,-117 453.5,-117 453.5,-117 544.5,-117 544.5,-117 550.5,-117 556.5,-123 556.5,-129 556.5,-129 556.5,-141 556.5,-141 556.5,-147 550.5,-153 544.5,-153"/>
<text text-anchor="middle" x="499" y="-131.3" font-family="Times,serif" font-size="14.00" fill="#000000">TensorExprGroup</text>
</g>
<!-- 130&#45;&gt;68 -->
<g id="edge11" class="edge">
<title>130&#45;&gt;68</title>
<path fill="none" stroke="#000000" d="M467.7564,-276.957C448.3696,-248.9886 446.5936,-194.9884 462.4284,-162.2504"/>
<polygon fill="#000000" stroke="#000000" points="465.6706,-163.6342 467.6325,-153.2226 459.606,-160.1383 465.6706,-163.6342"/>
</g>
<!-- 130&#45;&gt;68 -->
<g id="edge12" class="edge">
<title>130&#45;&gt;68</title>
<path fill="none" stroke="#000000" d="M476.6832,-276.957C462.8949,-249.1086 461.578,-195.4514 472.7325,-162.6731"/>
<polygon fill="#000000" stroke="#000000" points="476.0515,-163.8035 476.5946,-153.2226 469.5717,-161.1554 476.0515,-163.8035"/>
</g>
<!-- 130&#45;&gt;68 -->
<g id="edge13" class="edge">
<title>130&#45;&gt;68</title>
<path fill="none" stroke="#000000" d="M485.6099,-276.957C477.3726,-249.2286 476.5538,-195.9135 483.1534,-163.0982"/>
<polygon fill="#000000" stroke="#000000" points="486.5928,-163.7666 485.5568,-153.2226 479.7913,-162.1113 486.5928,-163.7666"/>
</g>
<!-- 130&#45;&gt;68 -->
<g id="edge14" class="edge">
<title>130&#45;&gt;68</title>
<path fill="none" stroke="#000000" d="M494.5366,-276.957C491.8028,-249.3487 491.5203,-196.3746 493.6894,-163.5255"/>
<polygon fill="#000000" stroke="#000000" points="497.205,-163.4712 494.5189,-153.2226 490.2275,-162.9094 497.205,-163.4712"/>
</g>
<!-- 130&#45;&gt;68 -->
<g id="edge15" class="edge">
<title>130&#45;&gt;68</title>
<path fill="none" stroke="#000000" d="M503.4634,-276.957C506.1972,-249.3487 506.4797,-196.3746 504.3106,-163.5255"/>
<polygon fill="#000000" stroke="#000000" points="507.7725,-162.9094 503.4811,-153.2226 500.795,-163.4712 507.7725,-162.9094"/>
</g>
<!-- 130&#45;&gt;68 -->
<g id="edge16" class="edge">
<title>130&#45;&gt;68</title>
<path fill="none" stroke="#000000" d="M512.3901,-276.957C520.6274,-249.2286 521.4462,-195.9135 514.8466,-163.0982"/>
<polygon fill="#000000" stroke="#000000" points="518.2087,-162.1113 512.4432,-153.2226 511.4072,-163.7666 518.2087,-162.1113"/>
</g>
<!-- 130&#45;&gt;68 -->
<g id="edge17" class="edge">
<title>130&#45;&gt;68</title>
<path fill="none" stroke="#000000" d="M521.3168,-276.957C535.1051,-249.1086 536.422,-195.4514 525.2675,-162.6731"/>
<polygon fill="#000000" stroke="#000000" points="528.4283,-161.1554 521.4054,-153.2226 521.9485,-163.8035 528.4283,-161.1554"/>
</g>
<!-- 130&#45;&gt;68 -->
<g id="edge18" class="edge">
<title>130&#45;&gt;68</title>
<path fill="none" stroke="#000000" d="M530.2436,-276.957C549.6304,-248.9886 551.4064,-194.9884 535.5716,-162.2504"/>
<polygon fill="#000000" stroke="#000000" points="538.394,-160.1383 530.3675,-153.2226 532.3294,-163.6342 538.394,-160.1383"/>
</g>
<!-- 139 -->
<g id="node11" class="node">
<title>139</title>
<ellipse fill="none" stroke="#000000" cx="381" cy="-76.5" rx="3.5" ry="3.5"/>
</g>
<!-- 139_in&#45;&gt;139 -->
<!-- 139_in&#45;&gt;68 -->
<g id="edge19" class="edge">
<title>139_in&#45;&gt;68</title>
<path fill="none" stroke="#000000" d="M387.9293,-208.299C394.2139,-197.026 404.4095,-181.2841 417,-171 423.0959,-166.0208 429.9876,-161.603 437.1219,-157.7194"/>
<polygon fill="#000000" stroke="#000000" points="438.9165,-160.7335 446.2468,-153.0838 435.746,-154.4927 438.9165,-160.7335"/>
<text text-anchor="middle" x="420.5" y="-174.8" font-family="Times,serif" font-size="14.00" fill="#000000">y</text>
</g>
<!-- 139_in&#45;&gt;165 -->
<g id="edge29" class="edge">
<title>139_in&#45;&gt;165</title>
<path fill="none" stroke="#000000" d="M372.7225,-208.9571C364.8218,-197.4777 351.9323,-181.0668 337,-171 328.1166,-165.0111 318.1439,-159.9322 307.9631,-155.649"/>
<polygon fill="#000000" stroke="#000000" points="309.1663,-152.3612 298.58,-151.9359 306.5906,-158.8701 309.1663,-152.3612"/>
<text text-anchor="middle" x="356.5" y="-174.8" font-family="Times,serif" font-size="14.00" fill="#000000">n</text>
</g>
<!-- .outputs -->
<g id="node14" class="node">
<title>.outputs</title>
<ellipse fill="none" stroke="#0000ff" cx="381" cy="-18" rx="36.2938" ry="18"/>
<text text-anchor="middle" x="381" y="-14.3" font-family="Times,serif" font-size="14.00" fill="#000000">outputs</text>
</g>
<!-- 139&#45;&gt;.outputs -->
<g id="edge31" class="edge">
<title>139&#45;&gt;.outputs</title>
<path fill="none" stroke="#000000" d="M381,-72.6617C381,-67.1711 381,-56.5846 381,-46.179"/>
<polygon fill="#000000" stroke="#000000" points="384.5001,-46.0292 381,-36.0293 377.5001,-46.0293 384.5001,-46.0292"/>
</g>
<!-- 68&#45;&gt;139 -->
<g id="edge20" class="edge">
<title>68&#45;&gt;139</title>
<path fill="none" stroke="#000000" d="M462.6333,-116.9707C439.0931,-105.3004 409.887,-90.8211 393.5604,-82.727"/>
<polygon fill="#000000" stroke="#000000" points="394.7276,-79.3992 384.2136,-78.0932 391.6184,-85.6708 394.7276,-79.3992"/>
</g>
<!-- 165&#45;&gt;139 -->
<g id="edge30" class="edge">
<title>165&#45;&gt;139</title>
<path fill="none" stroke="#000000" d="M277.2289,-116.9707C308.7427,-104.6804 348.2444,-89.2747 368.1991,-81.4924"/>
<polygon fill="#000000" stroke="#000000" points="369.623,-84.6939 377.6678,-77.7995 367.0796,-78.1723 369.623,-84.6939"/>
</g>
</g>
</svg>
