<?xml version="1.0" encoding="UTF-8" standalone="no"?>
<!DOCTYPE svg PUBLIC "-//W3C//DTD SVG 1.1//EN"
 "http://www.w3.org/Graphics/SVG/1.1/DTD/svg11.dtd">
<!-- Generated by graphviz version 2.40.1 (20161225.0304)
 -->
<!-- Title: %3 Pages: 1 -->
<svg width="566pt" height="692pt"
 viewBox="0.00 0.00 566.00 692.00" xmlns="http://www.w3.org/2000/svg" xmlns:xlink="http://www.w3.org/1999/xlink">
<g id="graph0" class="graph" transform="scale(1 1) rotate(0) translate(4 688)">
<title>%3</title>
<polygon fill="#ffffff" stroke="transparent" points="-4,4 -4,-688 562,-688 562,4 -4,4"/>
<!-- x1.1 -->
<g id="node1" class="node">
<title>x1.1</title>
<ellipse fill="none" stroke="#0000ff" cx="99" cy="-666" rx="27" ry="18"/>
<text text-anchor="middle" x="99" y="-662.3" font-family="Times,serif" font-size="14.00" fill="#000000">x1</text>
</g>
<!-- xi.1 -->
<g id="node9" class="node">
<title>xi.1</title>
<path fill="none" stroke="#000000" d="M42,-612C42,-612 12,-612 12,-612 6,-612 0,-606 0,-600 0,-600 0,-588 0,-588 0,-582 6,-576 12,-576 12,-576 42,-576 42,-576 48,-576 54,-582 54,-588 54,-588 54,-600 54,-600 54,-606 48,-612 42,-612"/>
<text text-anchor="middle" x="27" y="-590.3" font-family="Times,serif" font-size="14.00" fill="#000000">max</text>
</g>
<!-- x1.1&#45;&gt;xi.1 -->
<g id="edge1" class="edge">
<title>x1.1&#45;&gt;xi.1</title>
<path fill="none" stroke="#000000" d="M83.7307,-650.7307C74.6292,-641.6292 62.8461,-629.8461 52.3788,-619.3788"/>
<polygon fill="#000000" stroke="#000000" points="54.5927,-616.6429 45.0467,-612.0467 49.6429,-621.5927 54.5927,-616.6429"/>
</g>
<!-- 17 -->
<g id="node11" class="node">
<title>17</title>
<path fill="none" stroke="#000000" d="M186,-612C186,-612 156,-612 156,-612 150,-612 144,-606 144,-600 144,-600 144,-588 144,-588 144,-582 150,-576 156,-576 156,-576 186,-576 186,-576 192,-576 198,-582 198,-588 198,-588 198,-600 198,-600 198,-606 192,-612 186,-612"/>
<text text-anchor="middle" x="171" y="-590.3" font-family="Times,serif" font-size="14.00" fill="#000000">add</text>
</g>
<!-- x1.1&#45;&gt;17 -->
<g id="edge5" class="edge">
<title>x1.1&#45;&gt;17</title>
<path fill="none" stroke="#000000" d="M114.2693,-650.7307C123.3708,-641.6292 135.1539,-629.8461 145.6212,-619.3788"/>
<polygon fill="#000000" stroke="#000000" points="148.3571,-621.5927 152.9533,-612.0467 143.4073,-616.6429 148.3571,-621.5927"/>
</g>
<!-- y1.1 -->
<g id="node2" class="node">
<title>y1.1</title>
<ellipse fill="none" stroke="#0000ff" cx="531" cy="-666" rx="27" ry="18"/>
<text text-anchor="middle" x="531" y="-662.3" font-family="Times,serif" font-size="14.00" fill="#000000">y1</text>
</g>
<!-- yi.1 -->
<g id="node10" class="node">
<title>yi.1</title>
<path fill="none" stroke="#000000" d="M546,-612C546,-612 516,-612 516,-612 510,-612 504,-606 504,-600 504,-600 504,-588 504,-588 504,-582 510,-576 516,-576 516,-576 546,-576 546,-576 552,-576 558,-582 558,-588 558,-588 558,-600 558,-600 558,-606 552,-612 546,-612"/>
<text text-anchor="middle" x="531" y="-590.3" font-family="Times,serif" font-size="14.00" fill="#000000">max</text>
</g>
<!-- y1.1&#45;&gt;yi.1 -->
<g id="edge3" class="edge">
<title>y1.1&#45;&gt;yi.1</title>
<path fill="none" stroke="#000000" d="M531,-647.8314C531,-640.131 531,-630.9743 531,-622.4166"/>
<polygon fill="#000000" stroke="#000000" points="534.5001,-622.4132 531,-612.4133 527.5001,-622.4133 534.5001,-622.4132"/>
</g>
<!-- 32 -->
<g id="node16" class="node">
<title>32</title>
<path fill="none" stroke="#000000" d="M474,-612C474,-612 444,-612 444,-612 438,-612 432,-606 432,-600 432,-600 432,-588 432,-588 432,-582 438,-576 444,-576 444,-576 474,-576 474,-576 480,-576 486,-582 486,-588 486,-588 486,-600 486,-600 486,-606 480,-612 474,-612"/>
<text text-anchor="middle" x="459" y="-590.3" font-family="Times,serif" font-size="14.00" fill="#000000">add</text>
</g>
<!-- y1.1&#45;&gt;32 -->
<g id="edge14" class="edge">
<title>y1.1&#45;&gt;32</title>
<path fill="none" stroke="#000000" d="M515.7307,-650.7307C506.6292,-641.6292 494.8461,-629.8461 484.3788,-619.3788"/>
<polygon fill="#000000" stroke="#000000" points="486.5927,-616.6429 477.0467,-612.0467 481.6429,-621.5927 486.5927,-616.6429"/>
</g>
<!-- w1.1 -->
<g id="node3" class="node">
<title>w1.1</title>
<ellipse fill="none" stroke="#0000ff" cx="243" cy="-666" rx="27" ry="18"/>
<text text-anchor="middle" x="243" y="-662.3" font-family="Times,serif" font-size="14.00" fill="#000000">w1</text>
</g>
<!-- w1.1&#45;&gt;17 -->
<g id="edge6" class="edge">
<title>w1.1&#45;&gt;17</title>
<path fill="none" stroke="#000000" d="M227.7307,-650.7307C218.6292,-641.6292 206.8461,-629.8461 196.3788,-619.3788"/>
<polygon fill="#000000" stroke="#000000" points="198.5927,-616.6429 189.0467,-612.0467 193.6429,-621.5927 198.5927,-616.6429"/>
</g>
<!-- 48 -->
<g id="node22" class="node">
<title>48</title>
<path fill="none" stroke="#000000" d="M330,-612C330,-612 300,-612 300,-612 294,-612 288,-606 288,-600 288,-600 288,-588 288,-588 288,-582 294,-576 300,-576 300,-576 330,-576 330,-576 336,-576 342,-582 342,-588 342,-588 342,-600 342,-600 342,-606 336,-612 330,-612"/>
<text text-anchor="middle" x="315" y="-590.3" font-family="Times,serif" font-size="14.00" fill="#000000">mul</text>
</g>
<!-- w1.1&#45;&gt;48 -->
<g id="edge25" class="edge">
<title>w1.1&#45;&gt;48</title>
<path fill="none" stroke="#000000" d="M258.2693,-650.7307C267.3708,-641.6292 279.1539,-629.8461 289.6212,-619.3788"/>
<polygon fill="#000000" stroke="#000000" points="292.3571,-621.5927 296.9533,-612.0467 287.4073,-616.6429 292.3571,-621.5927"/>
</g>
<!-- h1.1 -->
<g id="node4" class="node">
<title>h1.1</title>
<ellipse fill="none" stroke="#0000ff" cx="387" cy="-666" rx="27" ry="18"/>
<text text-anchor="middle" x="387" y="-662.3" font-family="Times,serif" font-size="14.00" fill="#000000">h1</text>
</g>
<!-- h1.1&#45;&gt;32 -->
<g id="edge15" class="edge">
<title>h1.1&#45;&gt;32</title>
<path fill="none" stroke="#000000" d="M402.2693,-650.7307C411.3708,-641.6292 423.1539,-629.8461 433.6212,-619.3788"/>
<polygon fill="#000000" stroke="#000000" points="436.3571,-621.5927 440.9533,-612.0467 431.4073,-616.6429 436.3571,-621.5927"/>
</g>
<!-- h1.1&#45;&gt;48 -->
<g id="edge26" class="edge">
<title>h1.1&#45;&gt;48</title>
<path fill="none" stroke="#000000" d="M371.7307,-650.7307C362.6292,-641.6292 350.8461,-629.8461 340.3788,-619.3788"/>
<polygon fill="#000000" stroke="#000000" points="342.5927,-616.6429 333.0467,-612.0467 337.6429,-621.5927 342.5927,-616.6429"/>
</g>
<!-- x2.1 -->
<g id="node5" class="node">
<title>x2.1</title>
<ellipse fill="none" stroke="#0000ff" cx="27" cy="-666" rx="27" ry="18"/>
<text text-anchor="middle" x="27" y="-662.3" font-family="Times,serif" font-size="14.00" fill="#000000">x2</text>
</g>
<!-- x2.1&#45;&gt;xi.1 -->
<g id="edge2" class="edge">
<title>x2.1&#45;&gt;xi.1</title>
<path fill="none" stroke="#000000" d="M27,-647.8314C27,-640.131 27,-630.9743 27,-622.4166"/>
<polygon fill="#000000" stroke="#000000" points="30.5001,-622.4132 27,-612.4133 23.5001,-622.4133 30.5001,-622.4132"/>
</g>
<!-- 21 -->
<g id="node12" class="node">
<title>21</title>
<path fill="none" stroke="#000000" d="M114,-612C114,-612 84,-612 84,-612 78,-612 72,-606 72,-600 72,-600 72,-588 72,-588 72,-582 78,-576 84,-576 84,-576 114,-576 114,-576 120,-576 126,-582 126,-588 126,-588 126,-600 126,-600 126,-606 120,-612 114,-612"/>
<text text-anchor="middle" x="99" y="-590.3" font-family="Times,serif" font-size="14.00" fill="#000000">add</text>
</g>
<!-- x2.1&#45;&gt;21 -->
<g id="edge7" class="edge">
<title>x2.1&#45;&gt;21</title>
<path fill="none" stroke="#000000" d="M42.2693,-650.7307C51.3708,-641.6292 63.1539,-629.8461 73.6212,-619.3788"/>
<polygon fill="#000000" stroke="#000000" points="76.3571,-621.5927 80.9533,-612.0467 71.4073,-616.6429 76.3571,-621.5927"/>
</g>
<!-- y2.1 -->
<g id="node6" class="node">
<title>y2.1</title>
<ellipse fill="none" stroke="#0000ff" cx="459" cy="-666" rx="27" ry="18"/>
<text text-anchor="middle" x="459" y="-662.3" font-family="Times,serif" font-size="14.00" fill="#000000">y2</text>
</g>
<!-- y2.1&#45;&gt;yi.1 -->
<g id="edge4" class="edge">
<title>y2.1&#45;&gt;yi.1</title>
<path fill="none" stroke="#000000" d="M474.2693,-650.7307C483.3708,-641.6292 495.1539,-629.8461 505.6212,-619.3788"/>
<polygon fill="#000000" stroke="#000000" points="508.3571,-621.5927 512.9533,-612.0467 503.4073,-616.6429 508.3571,-621.5927"/>
</g>
<!-- 36 -->
<g id="node17" class="node">
<title>36</title>
<path fill="none" stroke="#000000" d="M402,-612C402,-612 372,-612 372,-612 366,-612 360,-606 360,-600 360,-600 360,-588 360,-588 360,-582 366,-576 372,-576 372,-576 402,-576 402,-576 408,-576 414,-582 414,-588 414,-588 414,-600 414,-600 414,-606 408,-612 402,-612"/>
<text text-anchor="middle" x="387" y="-590.3" font-family="Times,serif" font-size="14.00" fill="#000000">add</text>
</g>
<!-- y2.1&#45;&gt;36 -->
<g id="edge16" class="edge">
<title>y2.1&#45;&gt;36</title>
<path fill="none" stroke="#000000" d="M443.7307,-650.7307C434.6292,-641.6292 422.8461,-629.8461 412.3788,-619.3788"/>
<polygon fill="#000000" stroke="#000000" points="414.5927,-616.6429 405.0467,-612.0467 409.6429,-621.5927 414.5927,-616.6429"/>
</g>
<!-- w2.1 -->
<g id="node7" class="node">
<title>w2.1</title>
<ellipse fill="none" stroke="#0000ff" cx="171" cy="-666" rx="27" ry="18"/>
<text text-anchor="middle" x="171" y="-662.3" font-family="Times,serif" font-size="14.00" fill="#000000">w2</text>
</g>
<!-- w2.1&#45;&gt;21 -->
<g id="edge8" class="edge">
<title>w2.1&#45;&gt;21</title>
<path fill="none" stroke="#000000" d="M155.7307,-650.7307C146.6292,-641.6292 134.8461,-629.8461 124.3788,-619.3788"/>
<polygon fill="#000000" stroke="#000000" points="126.5927,-616.6429 117.0467,-612.0467 121.6429,-621.5927 126.5927,-616.6429"/>
</g>
<!-- 51 -->
<g id="node23" class="node">
<title>51</title>
<path fill="none" stroke="#000000" d="M258,-612C258,-612 228,-612 228,-612 222,-612 216,-606 216,-600 216,-600 216,-588 216,-588 216,-582 222,-576 228,-576 228,-576 258,-576 258,-576 264,-576 270,-582 270,-588 270,-588 270,-600 270,-600 270,-606 264,-612 258,-612"/>
<text text-anchor="middle" x="243" y="-590.3" font-family="Times,serif" font-size="14.00" fill="#000000">mul</text>
</g>
<!-- w2.1&#45;&gt;51 -->
<g id="edge27" class="edge">
<title>w2.1&#45;&gt;51</title>
<path fill="none" stroke="#000000" d="M186.2693,-650.7307C195.3708,-641.6292 207.1539,-629.8461 217.6212,-619.3788"/>
<polygon fill="#000000" stroke="#000000" points="220.3571,-621.5927 224.9533,-612.0467 215.4073,-616.6429 220.3571,-621.5927"/>
</g>
<!-- h2.1 -->
<g id="node8" class="node">
<title>h2.1</title>
<ellipse fill="none" stroke="#0000ff" cx="315" cy="-666" rx="27" ry="18"/>
<text text-anchor="middle" x="315" y="-662.3" font-family="Times,serif" font-size="14.00" fill="#000000">h2</text>
</g>
<!-- h2.1&#45;&gt;36 -->
<g id="edge17" class="edge">
<title>h2.1&#45;&gt;36</title>
<path fill="none" stroke="#000000" d="M330.2693,-650.7307C339.3708,-641.6292 351.1539,-629.8461 361.6212,-619.3788"/>
<polygon fill="#000000" stroke="#000000" points="364.3571,-621.5927 368.9533,-612.0467 359.4073,-616.6429 364.3571,-621.5927"/>
</g>
<!-- h2.1&#45;&gt;51 -->
<g id="edge28" class="edge">
<title>h2.1&#45;&gt;51</title>
<path fill="none" stroke="#000000" d="M299.7307,-650.7307C290.6292,-641.6292 278.8461,-629.8461 268.3788,-619.3788"/>
<polygon fill="#000000" stroke="#000000" points="270.5927,-616.6429 261.0467,-612.0467 265.6429,-621.5927 270.5927,-616.6429"/>
</g>
<!-- 25 -->
<g id="node14" class="node">
<title>25</title>
<path fill="none" stroke="#000000" d="M164,-468C164,-468 134,-468 134,-468 128,-468 122,-462 122,-456 122,-456 122,-444 122,-444 122,-438 128,-432 134,-432 134,-432 164,-432 164,-432 170,-432 176,-438 176,-444 176,-444 176,-456 176,-456 176,-462 170,-468 164,-468"/>
<text text-anchor="middle" x="149" y="-446.3" font-family="Times,serif" font-size="14.00" fill="#000000">sub</text>
</g>
<!-- xi.1&#45;&gt;25 -->
<g id="edge12" class="edge">
<title>xi.1&#45;&gt;25</title>
<path fill="none" stroke="#000000" d="M42.4514,-575.7623C63.9019,-550.4436 102.811,-504.5182 127.2051,-475.7251"/>
<polygon fill="#000000" stroke="#000000" points="129.8803,-477.982 133.6741,-468.0896 124.5394,-473.457 129.8803,-477.982"/>
</g>
<!-- 40 -->
<g id="node19" class="node">
<title>40</title>
<path fill="none" stroke="#000000" d="M411,-468C411,-468 381,-468 381,-468 375,-468 369,-462 369,-456 369,-456 369,-444 369,-444 369,-438 375,-432 381,-432 381,-432 411,-432 411,-432 417,-432 423,-438 423,-444 423,-444 423,-456 423,-456 423,-462 417,-468 411,-468"/>
<text text-anchor="middle" x="396" y="-446.3" font-family="Times,serif" font-size="14.00" fill="#000000">sub</text>
</g>
<!-- yi.1&#45;&gt;40 -->
<g id="edge21" class="edge">
<title>yi.1&#45;&gt;40</title>
<path fill="none" stroke="#000000" d="M513.9022,-575.7623C490.1659,-550.4436 447.1108,-504.5182 420.1173,-475.7251"/>
<polygon fill="#000000" stroke="#000000" points="422.3518,-472.9912 412.959,-468.0896 417.2451,-477.7788 422.3518,-472.9912"/>
</g>
<!-- 22 -->
<g id="node13" class="node">
<title>22</title>
<path fill="none" stroke="#000000" d="M164,-540C164,-540 134,-540 134,-540 128,-540 122,-534 122,-528 122,-528 122,-516 122,-516 122,-510 128,-504 134,-504 134,-504 164,-504 164,-504 170,-504 176,-510 176,-516 176,-516 176,-528 176,-528 176,-534 170,-540 164,-540"/>
<text text-anchor="middle" x="149" y="-518.3" font-family="Times,serif" font-size="14.00" fill="#000000">min</text>
</g>
<!-- 17&#45;&gt;22 -->
<g id="edge9" class="edge">
<title>17&#45;&gt;22</title>
<path fill="none" stroke="#000000" d="M165.4485,-575.8314C163.0697,-568.0463 160.2362,-558.7729 157.5967,-550.1347"/>
<polygon fill="#000000" stroke="#000000" points="160.8958,-548.954 154.6263,-540.4133 154.2013,-550.9996 160.8958,-548.954"/>
</g>
<!-- 21&#45;&gt;22 -->
<g id="edge10" class="edge">
<title>21&#45;&gt;22</title>
<path fill="none" stroke="#000000" d="M111.6171,-575.8314C117.3172,-567.6232 124.1663,-557.7606 130.4359,-548.7323"/>
<polygon fill="#000000" stroke="#000000" points="133.3838,-550.6234 136.213,-540.4133 127.6342,-546.6306 133.3838,-550.6234"/>
</g>
<!-- 22&#45;&gt;25 -->
<g id="edge11" class="edge">
<title>22&#45;&gt;25</title>
<path fill="none" stroke="#000000" d="M149,-503.8314C149,-496.131 149,-486.9743 149,-478.4166"/>
<polygon fill="#000000" stroke="#000000" points="152.5001,-478.4132 149,-468.4133 145.5001,-478.4133 152.5001,-478.4132"/>
</g>
<!-- wi.1 -->
<g id="node15" class="node">
<title>wi.1</title>
<path fill="none" stroke="#000000" d="M193,-396C193,-396 163,-396 163,-396 157,-396 151,-390 151,-384 151,-384 151,-372 151,-372 151,-366 157,-360 163,-360 163,-360 193,-360 193,-360 199,-360 205,-366 205,-372 205,-372 205,-384 205,-384 205,-390 199,-396 193,-396"/>
<text text-anchor="middle" x="178" y="-374.3" font-family="Times,serif" font-size="14.00" fill="#000000">clamp</text>
</g>
<!-- 25&#45;&gt;wi.1 -->
<g id="edge13" class="edge">
<title>25&#45;&gt;wi.1</title>
<path fill="none" stroke="#000000" d="M156.3179,-431.8314C159.4876,-423.9617 163.27,-414.5712 166.7813,-405.8533"/>
<polygon fill="#000000" stroke="#000000" points="170.0939,-406.9968 170.5835,-396.4133 163.6008,-404.3815 170.0939,-406.9968"/>
</g>
<!-- area_i.1 -->
<g id="node21" class="node">
<title>area_i.1</title>
<path fill="none" stroke="#000000" d="M193,-324C193,-324 163,-324 163,-324 157,-324 151,-318 151,-312 151,-312 151,-300 151,-300 151,-294 157,-288 163,-288 163,-288 193,-288 193,-288 199,-288 205,-294 205,-300 205,-300 205,-312 205,-312 205,-318 199,-324 193,-324"/>
<text text-anchor="middle" x="178" y="-302.3" font-family="Times,serif" font-size="14.00" fill="#000000">mul</text>
</g>
<!-- wi.1&#45;&gt;area_i.1 -->
<g id="edge23" class="edge">
<title>wi.1&#45;&gt;area_i.1</title>
<path fill="none" stroke="#000000" d="M178,-359.8314C178,-352.131 178,-342.9743 178,-334.4166"/>
<polygon fill="#000000" stroke="#000000" points="181.5001,-334.4132 178,-324.4133 174.5001,-334.4133 181.5001,-334.4132"/>
</g>
<!-- 56 -->
<g id="node25" class="node">
<title>56</title>
<path fill="none" stroke="#000000" d="M265,-324C265,-324 235,-324 235,-324 229,-324 223,-318 223,-312 223,-312 223,-300 223,-300 223,-294 229,-288 235,-288 235,-288 265,-288 265,-288 271,-288 277,-294 277,-300 277,-300 277,-312 277,-312 277,-318 271,-324 265,-324"/>
<text text-anchor="middle" x="250" y="-302.3" font-family="Times,serif" font-size="14.00" fill="#000000">mul</text>
</g>
<!-- wi.1&#45;&gt;56 -->
<g id="edge31" class="edge">
<title>wi.1&#45;&gt;56</title>
<path fill="none" stroke="#000000" d="M196.1686,-359.8314C204.7152,-351.2848 215.0557,-340.9443 224.3802,-331.6198"/>
<polygon fill="#000000" stroke="#000000" points="226.9905,-333.9592 231.5867,-324.4133 222.0408,-329.0095 226.9905,-333.9592"/>
</g>
<!-- 37 -->
<g id="node18" class="node">
<title>37</title>
<path fill="none" stroke="#000000" d="M411,-540C411,-540 381,-540 381,-540 375,-540 369,-534 369,-528 369,-528 369,-516 369,-516 369,-510 375,-504 381,-504 381,-504 411,-504 411,-504 417,-504 423,-510 423,-516 423,-516 423,-528 423,-528 423,-534 417,-540 411,-540"/>
<text text-anchor="middle" x="396" y="-518.3" font-family="Times,serif" font-size="14.00" fill="#000000">min</text>
</g>
<!-- 32&#45;&gt;37 -->
<g id="edge18" class="edge">
<title>32&#45;&gt;37</title>
<path fill="none" stroke="#000000" d="M443.1024,-575.8314C435.7722,-567.454 426.934,-557.3531 418.9031,-548.1749"/>
<polygon fill="#000000" stroke="#000000" points="421.3307,-545.6343 412.1116,-540.4133 416.0627,-550.2438 421.3307,-545.6343"/>
</g>
<!-- 36&#45;&gt;37 -->
<g id="edge19" class="edge">
<title>36&#45;&gt;37</title>
<path fill="none" stroke="#000000" d="M389.2711,-575.8314C390.2336,-568.131 391.3782,-558.9743 392.4479,-550.4166"/>
<polygon fill="#000000" stroke="#000000" points="395.9309,-550.7702 393.6983,-540.4133 388.9849,-549.9019 395.9309,-550.7702"/>
</g>
<!-- 37&#45;&gt;40 -->
<g id="edge20" class="edge">
<title>37&#45;&gt;40</title>
<path fill="none" stroke="#000000" d="M396,-503.8314C396,-496.131 396,-486.9743 396,-478.4166"/>
<polygon fill="#000000" stroke="#000000" points="399.5001,-478.4132 396,-468.4133 392.5001,-478.4133 399.5001,-478.4132"/>
</g>
<!-- hi.1 -->
<g id="node20" class="node">
<title>hi.1</title>
<path fill="none" stroke="#000000" d="M265,-396C265,-396 235,-396 235,-396 229,-396 223,-390 223,-384 223,-384 223,-372 223,-372 223,-366 229,-360 235,-360 235,-360 265,-360 265,-360 271,-360 277,-366 277,-372 277,-372 277,-384 277,-384 277,-390 271,-396 265,-396"/>
<text text-anchor="middle" x="250" y="-374.3" font-family="Times,serif" font-size="14.00" fill="#000000">clamp</text>
</g>
<!-- 40&#45;&gt;hi.1 -->
<g id="edge22" class="edge">
<title>40&#45;&gt;hi.1</title>
<path fill="none" stroke="#000000" d="M368.8807,-436.6261C345.6719,-425.1807 312.0582,-408.604 286.4908,-395.9955"/>
<polygon fill="#000000" stroke="#000000" points="287.9863,-392.8305 277.4695,-391.5466 284.8902,-399.1086 287.9863,-392.8305"/>
</g>
<!-- hi.1&#45;&gt;area_i.1 -->
<g id="edge24" class="edge">
<title>hi.1&#45;&gt;area_i.1</title>
<path fill="none" stroke="#000000" d="M231.8314,-359.8314C223.2848,-351.2848 212.9443,-340.9443 203.6198,-331.6198"/>
<polygon fill="#000000" stroke="#000000" points="205.9592,-329.0095 196.4133,-324.4133 201.0095,-333.9592 205.9592,-329.0095"/>
</g>
<!-- hi.1&#45;&gt;56 -->
<g id="edge32" class="edge">
<title>hi.1&#45;&gt;56</title>
<path fill="none" stroke="#000000" d="M250,-359.8314C250,-352.131 250,-342.9743 250,-334.4166"/>
<polygon fill="#000000" stroke="#000000" points="253.5001,-334.4132 250,-324.4133 246.5001,-334.4133 253.5001,-334.4132"/>
</g>
<!-- 64 -->
<g id="node28" class="node">
<title>64</title>
<path fill="none" stroke="#000000" d="M225,-108C225,-108 195,-108 195,-108 189,-108 183,-102 183,-96 183,-96 183,-84 183,-84 183,-78 189,-72 195,-72 195,-72 225,-72 225,-72 231,-72 237,-78 237,-84 237,-84 237,-96 237,-96 237,-102 231,-108 225,-108"/>
<text text-anchor="middle" x="210" y="-86.3" font-family="Times,serif" font-size="14.00" fill="#000000">div</text>
</g>
<!-- area_i.1&#45;&gt;64 -->
<g id="edge36" class="edge">
<title>area_i.1&#45;&gt;64</title>
<path fill="none" stroke="#000000" d="M180.6733,-287.9555C186.2497,-250.3144 199.1575,-163.1867 205.8334,-118.1246"/>
<polygon fill="#000000" stroke="#000000" points="209.3085,-118.5501 207.3118,-108.1451 202.3841,-117.5242 209.3085,-118.5501"/>
</g>
<!-- 53 -->
<g id="node24" class="node">
<title>53</title>
<path fill="none" stroke="#000000" d="M320,-540C320,-540 290,-540 290,-540 284,-540 278,-534 278,-528 278,-528 278,-516 278,-516 278,-510 284,-504 290,-504 290,-504 320,-504 320,-504 326,-504 332,-510 332,-516 332,-516 332,-528 332,-528 332,-534 326,-540 320,-540"/>
<text text-anchor="middle" x="305" y="-518.3" font-family="Times,serif" font-size="14.00" fill="#000000">add</text>
</g>
<!-- 48&#45;&gt;53 -->
<g id="edge29" class="edge">
<title>48&#45;&gt;53</title>
<path fill="none" stroke="#000000" d="M312.4766,-575.8314C311.4071,-568.131 310.1353,-558.9743 308.9468,-550.4166"/>
<polygon fill="#000000" stroke="#000000" points="312.3999,-549.8367 307.5574,-540.4133 305.4664,-550.7997 312.3999,-549.8367"/>
</g>
<!-- 51&#45;&gt;53 -->
<g id="edge30" class="edge">
<title>51&#45;&gt;53</title>
<path fill="none" stroke="#000000" d="M258.6452,-575.8314C265.8591,-567.454 274.557,-557.3531 282.4605,-548.1749"/>
<polygon fill="#000000" stroke="#000000" points="285.2711,-550.2748 289.1441,-540.4133 279.9667,-545.7071 285.2711,-550.2748"/>
</g>
<!-- area_u.1 -->
<g id="node26" class="node">
<title>area_u.1</title>
<path fill="none" stroke="#000000" d="M265,-252C265,-252 235,-252 235,-252 229,-252 223,-246 223,-240 223,-240 223,-228 223,-228 223,-222 229,-216 235,-216 235,-216 265,-216 265,-216 271,-216 277,-222 277,-228 277,-228 277,-240 277,-240 277,-246 271,-252 265,-252"/>
<text text-anchor="middle" x="250" y="-230.3" font-family="Times,serif" font-size="14.00" fill="#000000">sub</text>
</g>
<!-- 53&#45;&gt;area_u.1 -->
<g id="edge33" class="edge">
<title>53&#45;&gt;area_u.1</title>
<path fill="none" stroke="#000000" d="M306.5541,-503.7583C309.3392,-463.5148 312.6289,-364.614 286,-288 282.6505,-278.3633 277.1668,-268.788 271.4775,-260.4363"/>
<polygon fill="#000000" stroke="#000000" points="274.2435,-258.2879 265.5552,-252.2245 268.566,-262.3826 274.2435,-258.2879"/>
</g>
<!-- 56&#45;&gt;area_u.1 -->
<g id="edge34" class="edge">
<title>56&#45;&gt;area_u.1</title>
<path fill="none" stroke="#000000" d="M250,-287.8314C250,-280.131 250,-270.9743 250,-262.4166"/>
<polygon fill="#000000" stroke="#000000" points="253.5001,-262.4132 250,-252.4133 246.5001,-262.4133 253.5001,-262.4132"/>
</g>
<!-- 63 -->
<g id="node27" class="node">
<title>63</title>
<path fill="none" stroke="#000000" d="M261,-180C261,-180 231,-180 231,-180 225,-180 219,-174 219,-168 219,-168 219,-156 219,-156 219,-150 225,-144 231,-144 231,-144 261,-144 261,-144 267,-144 273,-150 273,-156 273,-156 273,-168 273,-168 273,-174 267,-180 261,-180"/>
<text text-anchor="middle" x="246" y="-158.3" font-family="Times,serif" font-size="14.00" fill="#000000">clamp</text>
</g>
<!-- area_u.1&#45;&gt;63 -->
<g id="edge35" class="edge">
<title>area_u.1&#45;&gt;63</title>
<path fill="none" stroke="#000000" d="M248.9906,-215.8314C248.5628,-208.131 248.0541,-198.9743 247.5787,-190.4166"/>
<polygon fill="#000000" stroke="#000000" points="251.0724,-190.2037 247.023,-180.4133 244.0831,-190.592 251.0724,-190.2037"/>
</g>
<!-- 63&#45;&gt;64 -->
<g id="edge37" class="edge">
<title>63&#45;&gt;64</title>
<path fill="none" stroke="#000000" d="M236.9157,-143.8314C232.9385,-135.8771 228.1845,-126.369 223.7861,-117.5723"/>
<polygon fill="#000000" stroke="#000000" points="226.8093,-115.7923 219.2066,-108.4133 220.5483,-118.9228 226.8093,-115.7923"/>
</g>
<!-- .outputs -->
<g id="node29" class="node">
<title>.outputs</title>
<ellipse fill="none" stroke="#0000ff" cx="210" cy="-18" rx="36.2938" ry="18"/>
<text text-anchor="middle" x="210" y="-14.3" font-family="Times,serif" font-size="14.00" fill="#000000">outputs</text>
</g>
<!-- 64&#45;&gt;.outputs -->
<g id="edge38" class="edge">
<title>64&#45;&gt;.outputs</title>
<path fill="none" stroke="#000000" d="M210,-71.8314C210,-64.131 210,-54.9743 210,-46.4166"/>
<polygon fill="#000000" stroke="#000000" points="213.5001,-46.4132 210,-36.4133 206.5001,-46.4133 213.5001,-46.4132"/>
</g>
</g>
</svg>
