<?xml version="1.0" encoding="UTF-8" standalone="no"?>
<!DOCTYPE svg PUBLIC "-//W3C//DTD SVG 1.1//EN"
 "http://www.w3.org/Graphics/SVG/1.1/DTD/svg11.dtd">
<!-- Generated by graphviz version 2.43.0 (0)
 -->
<!-- Title: %3 Pages: 1 -->
<svg width="595pt" height="394pt"
 viewBox="0.00 0.00 595.00 394.00" xmlns="http://www.w3.org/2000/svg" xmlns:xlink="http://www.w3.org/1999/xlink">
<g id="graph0" class="graph" transform="scale(1 1) rotate(0) translate(4 390)">
<title>%3</title>
<polygon fill="white" stroke="transparent" points="-4,4 -4,-390 591,-390 591,4 -4,4"/>
<g id="clust1" class="cluster">
<title>cluster_17_0</title>
<polygon fill="none" stroke="black" points="419,-109 419,-161 579,-161 579,-109 419,-109"/>
</g>
<g id="clust2" class="cluster">
<title>cluster_17_1</title>
<polygon fill="none" stroke="black" points="140,-109 140,-161 322,-161 322,-109 140,-109"/>
</g>
<!-- x1.1 -->
<g id="node1" class="node">
<title>x1.1</title>
<ellipse fill="none" stroke="blue" cx="27" cy="-368" rx="27" ry="18"/>
<text text-anchor="middle" x="27" y="-364.3" font-family="Times,serif" font-size="14.00">x1</text>
</g>
<!-- 8 -->
<g id="node9" class="node">
<title>8</title>
<path fill="none" stroke="black" d="M534.5,-313C534.5,-313 463.5,-313 463.5,-313 457.5,-313 451.5,-307 451.5,-301 451.5,-301 451.5,-289 451.5,-289 451.5,-283 457.5,-277 463.5,-277 463.5,-277 534.5,-277 534.5,-277 540.5,-277 546.5,-283 546.5,-289 546.5,-289 546.5,-301 546.5,-301 546.5,-307 540.5,-313 534.5,-313"/>
<text text-anchor="middle" x="499" y="-291.3" font-family="Times,serif" font-size="14.00">TypeCheck</text>
</g>
<!-- x1.1&#45;&gt;8 -->
<g id="edge8" class="edge">
<title>x1.1&#45;&gt;8</title>
<path fill="none" stroke="black" d="M47.5,-355.95C52.46,-353.67 57.82,-351.5 63,-350 194.68,-311.82 356.4,-300.63 441.05,-297.36"/>
<polygon fill="black" stroke="black" points="441.37,-300.85 451.23,-296.99 441.11,-293.85 441.37,-300.85"/>
</g>
<!-- 20 -->
<g id="node13" class="node">
<title>20</title>
<path fill="none" stroke="black" d="M302.5,-153C302.5,-153 159.5,-153 159.5,-153 153.5,-153 147.5,-147 147.5,-141 147.5,-141 147.5,-129 147.5,-129 147.5,-123 153.5,-117 159.5,-117 159.5,-117 302.5,-117 302.5,-117 308.5,-117 314.5,-123 314.5,-129 314.5,-129 314.5,-141 314.5,-141 314.5,-147 308.5,-153 302.5,-153"/>
<text text-anchor="middle" x="231" y="-131.3" font-family="Times,serif" font-size="14.00">call fallback_function</text>
</g>
<!-- x1.1&#45;&gt;20 -->
<g id="edge28" class="edge">
<title>x1.1&#45;&gt;20</title>
<path fill="none" stroke="black" d="M33.93,-350.47C50.42,-313.11 95.55,-221.46 161,-171 167.2,-166.22 174.16,-161.81 181.23,-157.86"/>
<polygon fill="black" stroke="black" points="182.99,-160.89 190.17,-153.1 179.7,-154.71 182.99,-160.89"/>
</g>
<!-- y1.1 -->
<g id="node2" class="node">
<title>y1.1</title>
<ellipse fill="none" stroke="blue" cx="243" cy="-368" rx="27" ry="18"/>
<text text-anchor="middle" x="243" y="-364.3" font-family="Times,serif" font-size="14.00">y1</text>
</g>
<!-- y1.1&#45;&gt;8 -->
<g id="edge6" class="edge">
<title>y1.1&#45;&gt;8</title>
<path fill="none" stroke="black" d="M263.64,-356.39C268.59,-354.09 273.92,-351.8 279,-350 332.93,-330.87 396.62,-316.04 441.56,-306.8"/>
<polygon fill="black" stroke="black" points="442.31,-310.22 451.42,-304.8 440.92,-303.36 442.31,-310.22"/>
</g>
<!-- y1.1&#45;&gt;20 -->
<g id="edge26" class="edge">
<title>y1.1&#45;&gt;20</title>
<path fill="none" stroke="black" d="M221.87,-356.3C212.76,-350.47 203.04,-342.31 198,-332 166.56,-267.72 171.59,-237.5 198,-171 199.38,-167.54 201.27,-164.22 203.47,-161.1"/>
<polygon fill="black" stroke="black" points="206.2,-163.29 209.83,-153.34 200.79,-158.85 206.2,-163.29"/>
</g>
<!-- w1.1 -->
<g id="node3" class="node">
<title>w1.1</title>
<ellipse fill="none" stroke="blue" cx="99" cy="-368" rx="27" ry="18"/>
<text text-anchor="middle" x="99" y="-364.3" font-family="Times,serif" font-size="14.00">w1</text>
</g>
<!-- w1.1&#45;&gt;8 -->
<g id="edge3" class="edge">
<title>w1.1&#45;&gt;8</title>
<path fill="none" stroke="black" d="M119.51,-355.97C124.46,-353.69 129.83,-351.52 135,-350 194.35,-332.58 211.79,-340.87 273,-332 330.39,-323.69 395.81,-313.15 441.44,-305.63"/>
<polygon fill="black" stroke="black" points="442.15,-309.06 451.44,-303.98 441.01,-302.15 442.15,-309.06"/>
</g>
<!-- w1.1&#45;&gt;20 -->
<g id="edge23" class="edge">
<title>w1.1&#45;&gt;20</title>
<path fill="none" stroke="black" d="M101.98,-349.98C109.08,-313.56 129.97,-226.87 176,-171 179.55,-166.69 183.78,-162.74 188.29,-159.17"/>
<polygon fill="black" stroke="black" points="190.56,-161.85 196.63,-153.16 186.47,-156.16 190.56,-161.85"/>
</g>
<!-- h1.1 -->
<g id="node4" class="node">
<title>h1.1</title>
<ellipse fill="none" stroke="blue" cx="171" cy="-368" rx="27" ry="18"/>
<text text-anchor="middle" x="171" y="-364.3" font-family="Times,serif" font-size="14.00">h1</text>
</g>
<!-- h1.1&#45;&gt;8 -->
<g id="edge4" class="edge">
<title>h1.1&#45;&gt;8</title>
<path fill="none" stroke="black" d="M191.57,-356.17C196.52,-353.88 201.87,-351.66 207,-350 218.1,-346.42 359.4,-320.92 441.29,-306.28"/>
<polygon fill="black" stroke="black" points="441.99,-309.71 451.21,-304.51 440.75,-302.82 441.99,-309.71"/>
</g>
<!-- h1.1&#45;&gt;20 -->
<g id="edge24" class="edge">
<title>h1.1&#45;&gt;20</title>
<path fill="none" stroke="black" d="M169.04,-349.59C166.14,-319.48 162.25,-255.9 174,-204 177.56,-188.29 179.23,-183.81 189,-171 191.94,-167.15 195.38,-163.44 199,-159.97"/>
<polygon fill="black" stroke="black" points="201.44,-162.48 206.58,-153.22 196.78,-157.25 201.44,-162.48"/>
</g>
<!-- x2.1 -->
<g id="node5" class="node">
<title>x2.1</title>
<ellipse fill="none" stroke="blue" cx="315" cy="-368" rx="27" ry="18"/>
<text text-anchor="middle" x="315" y="-364.3" font-family="Times,serif" font-size="14.00">x2</text>
</g>
<!-- x2.1&#45;&gt;8 -->
<g id="edge7" class="edge">
<title>x2.1&#45;&gt;8</title>
<path fill="none" stroke="black" d="M336.18,-356.61C341.01,-354.34 346.15,-352.02 351,-350 380.58,-337.65 414.09,-325.29 441.73,-315.52"/>
<polygon fill="black" stroke="black" points="442.98,-318.79 451.25,-312.18 440.66,-312.19 442.98,-318.79"/>
</g>
<!-- x2.1&#45;&gt;20 -->
<g id="edge27" class="edge">
<title>x2.1&#45;&gt;20</title>
<path fill="none" stroke="black" d="M293.86,-356.53C289.02,-354.27 283.87,-351.97 279,-350 255.94,-340.67 240.49,-352.22 226,-332 189.81,-281.49 207.77,-203.37 221.06,-162.68"/>
<polygon fill="black" stroke="black" points="224.38,-163.78 224.3,-153.19 217.76,-161.52 224.38,-163.78"/>
</g>
<!-- y2.1 -->
<g id="node6" class="node">
<title>y2.1</title>
<ellipse fill="none" stroke="blue" cx="387" cy="-368" rx="27" ry="18"/>
<text text-anchor="middle" x="387" y="-364.3" font-family="Times,serif" font-size="14.00">y2</text>
</g>
<!-- y2.1&#45;&gt;8 -->
<g id="edge5" class="edge">
<title>y2.1&#45;&gt;8</title>
<path fill="none" stroke="black" d="M406,-354.96C421.69,-345.01 444.41,-330.61 463.46,-318.53"/>
<polygon fill="black" stroke="black" points="465.34,-321.48 471.92,-313.17 461.6,-315.57 465.34,-321.48"/>
</g>
<!-- y2.1&#45;&gt;20 -->
<g id="edge25" class="edge">
<title>y2.1&#45;&gt;20</title>
<path fill="none" stroke="black" d="M365.55,-356.77C347.89,-347.45 323.21,-332.21 307,-313 268.83,-267.75 247.1,-200.44 237.34,-163.22"/>
<polygon fill="black" stroke="black" points="240.63,-161.97 234.79,-153.13 233.84,-163.68 240.63,-161.97"/>
</g>
<!-- w2.1 -->
<g id="node7" class="node">
<title>w2.1</title>
<ellipse fill="none" stroke="blue" cx="459" cy="-368" rx="27" ry="18"/>
<text text-anchor="middle" x="459" y="-364.3" font-family="Times,serif" font-size="14.00">w2</text>
</g>
<!-- w2.1&#45;&gt;8 -->
<g id="edge1" class="edge">
<title>w2.1&#45;&gt;8</title>
<path fill="none" stroke="black" d="M468.08,-350.89C472.9,-342.33 478.94,-331.61 484.4,-321.91"/>
<polygon fill="black" stroke="black" points="487.54,-323.47 489.4,-313.04 481.44,-320.03 487.54,-323.47"/>
</g>
<!-- w2.1&#45;&gt;20 -->
<g id="edge21" class="edge">
<title>w2.1&#45;&gt;20</title>
<path fill="none" stroke="black" d="M441.05,-354.23C426.42,-343.62 405.42,-327.9 388,-313 352.41,-282.55 343.36,-274.79 312,-240 288.97,-214.45 265.06,-183.06 249.25,-161.48"/>
<polygon fill="black" stroke="black" points="251.91,-159.19 243.19,-153.17 246.25,-163.31 251.91,-159.19"/>
</g>
<!-- h2.1 -->
<g id="node8" class="node">
<title>h2.1</title>
<ellipse fill="none" stroke="blue" cx="531" cy="-368" rx="27" ry="18"/>
<text text-anchor="middle" x="531" y="-364.3" font-family="Times,serif" font-size="14.00">h2</text>
</g>
<!-- h2.1&#45;&gt;8 -->
<g id="edge2" class="edge">
<title>h2.1&#45;&gt;8</title>
<path fill="none" stroke="black" d="M523.58,-350.53C519.85,-342.26 515.24,-332.04 511.03,-322.68"/>
<polygon fill="black" stroke="black" points="514.13,-321.05 506.83,-313.37 507.75,-323.92 514.13,-321.05"/>
</g>
<!-- h2.1&#45;&gt;20 -->
<g id="edge22" class="edge">
<title>h2.1&#45;&gt;20</title>
<path fill="none" stroke="black" d="M511.11,-355.49C493.06,-344.88 465.86,-328.48 443,-313 398.03,-282.54 385.58,-276.1 345,-240 328.56,-225.37 326.46,-219.67 311,-204 296.21,-189.01 292.96,-184.73 277,-171 272.52,-167.14 267.66,-163.21 262.84,-159.43"/>
<polygon fill="black" stroke="black" points="264.89,-156.6 254.83,-153.28 260.62,-162.15 264.89,-156.6"/>
</g>
<!-- 17_in -->
<g id="node10" class="node">
<title>17_in</title>
<polygon fill="none" stroke="black" points="381,-240 354,-222 381,-204 408,-222 381,-240"/>
<text text-anchor="middle" x="381" y="-218.3" font-family="Times,serif" font-size="14.00">If</text>
</g>
<!-- 8&#45;&gt;17_in -->
<g id="edge9" class="edge">
<title>8&#45;&gt;17_in</title>
<path fill="none" stroke="black" d="M455.46,-276.9C444.21,-271.76 432.36,-265.69 422,-259 413.76,-253.68 405.49,-246.78 398.55,-240.44"/>
<polygon fill="black" stroke="black" points="400.77,-237.72 391.1,-233.39 395.96,-242.81 400.77,-237.72"/>
</g>
<!-- 18 -->
<g id="node12" class="node">
<title>18</title>
<path fill="none" stroke="black" d="M558.5,-153C558.5,-153 439.5,-153 439.5,-153 433.5,-153 427.5,-147 427.5,-141 427.5,-141 427.5,-129 427.5,-129 427.5,-123 433.5,-117 439.5,-117 439.5,-117 558.5,-117 558.5,-117 564.5,-117 570.5,-123 570.5,-129 570.5,-129 570.5,-141 570.5,-141 570.5,-147 564.5,-153 558.5,-153"/>
<text text-anchor="middle" x="499" y="-131.3" font-family="Times,serif" font-size="14.00">TensorExprGroup</text>
</g>
<!-- 8&#45;&gt;18 -->
<g id="edge11" class="edge">
<title>8&#45;&gt;18</title>
<path fill="none" stroke="black" d="M468.19,-276.79C448.23,-249.13 446.45,-194.59 462.82,-162.11"/>
<polygon fill="black" stroke="black" points="466.04,-163.56 468.2,-153.19 460.04,-159.95 466.04,-163.56"/>
</g>
<!-- 8&#45;&gt;18 -->
<g id="edge12" class="edge">
<title>8&#45;&gt;18</title>
<path fill="none" stroke="black" d="M476.99,-276.79C462.8,-249.25 461.47,-195.06 473.01,-162.53"/>
<polygon fill="black" stroke="black" points="476.29,-163.76 477,-153.19 469.86,-161.01 476.29,-163.76"/>
</g>
<!-- 8&#45;&gt;18 -->
<g id="edge13" class="edge">
<title>8&#45;&gt;18</title>
<path fill="none" stroke="black" d="M485.8,-276.79C477.32,-249.37 476.49,-195.53 483.32,-162.96"/>
<polygon fill="black" stroke="black" points="486.73,-163.74 485.8,-153.19 479.94,-162.02 486.73,-163.74"/>
</g>
<!-- 8&#45;&gt;18 -->
<g id="edge14" class="edge">
<title>8&#45;&gt;18</title>
<path fill="none" stroke="black" d="M494.6,-276.79C491.78,-249.48 491.5,-195.99 493.74,-163.38"/>
<polygon fill="black" stroke="black" points="497.25,-163.45 494.6,-153.19 490.27,-162.86 497.25,-163.45"/>
</g>
<!-- 8&#45;&gt;18 -->
<g id="edge15" class="edge">
<title>8&#45;&gt;18</title>
<path fill="none" stroke="black" d="M503.4,-276.79C506.22,-249.48 506.5,-195.99 504.26,-163.38"/>
<polygon fill="black" stroke="black" points="507.73,-162.86 503.4,-153.19 500.75,-163.45 507.73,-162.86"/>
</g>
<!-- 8&#45;&gt;18 -->
<g id="edge16" class="edge">
<title>8&#45;&gt;18</title>
<path fill="none" stroke="black" d="M512.2,-276.79C520.68,-249.37 521.51,-195.53 514.68,-162.96"/>
<polygon fill="black" stroke="black" points="518.06,-162.02 512.2,-153.19 511.27,-163.74 518.06,-162.02"/>
</g>
<!-- 8&#45;&gt;18 -->
<g id="edge17" class="edge">
<title>8&#45;&gt;18</title>
<path fill="none" stroke="black" d="M521.01,-276.79C535.2,-249.25 536.53,-195.06 524.99,-162.53"/>
<polygon fill="black" stroke="black" points="528.14,-161.01 521,-153.19 521.71,-163.76 528.14,-161.01"/>
</g>
<!-- 8&#45;&gt;18 -->
<g id="edge18" class="edge">
<title>8&#45;&gt;18</title>
<path fill="none" stroke="black" d="M529.81,-276.79C549.77,-249.13 551.55,-194.59 535.18,-162.11"/>
<polygon fill="black" stroke="black" points="537.96,-159.95 529.8,-153.19 531.96,-163.56 537.96,-159.95"/>
</g>
<!-- 17 -->
<g id="node11" class="node">
<title>17</title>
<ellipse fill="none" stroke="black" cx="379" cy="-76.5" rx="3.5" ry="3.5"/>
</g>
<!-- 17_in&#45;&gt;17 -->
<!-- 17_in&#45;&gt;18 -->
<g id="edge19" class="edge">
<title>17_in&#45;&gt;18</title>
<path fill="none" stroke="black" d="M386.8,-207.47C392.17,-196.35 401.12,-180.89 413,-171 419.1,-165.93 426.03,-161.51 433.25,-157.68"/>
<polygon fill="black" stroke="black" points="435.07,-160.69 442.51,-153.15 431.99,-154.4 435.07,-160.69"/>
<text text-anchor="middle" x="417.5" y="-174.8" font-family="Times,serif" font-size="14.00">y</text>
</g>
<!-- 17_in&#45;&gt;20 -->
<g id="edge29" class="edge">
<title>17_in&#45;&gt;20</title>
<path fill="none" stroke="black" d="M372.43,-209.57C363.46,-198.33 348.43,-181.4 332,-171 323.39,-165.54 313.82,-160.82 304.1,-156.76"/>
<polygon fill="black" stroke="black" points="305.35,-153.49 294.77,-153.07 302.78,-160 305.35,-153.49"/>
<text text-anchor="middle" x="355" y="-174.8" font-family="Times,serif" font-size="14.00">n</text>
</g>
<!-- .outputs -->
<g id="node14" class="node">
<title>.outputs</title>
<ellipse fill="none" stroke="blue" cx="379" cy="-18" rx="46.29" ry="18"/>
<text text-anchor="middle" x="379" y="-14.3" font-family="Times,serif" font-size="14.00">outputs</text>
</g>
<!-- 17&#45;&gt;.outputs -->
<g id="edge31" class="edge">
<title>17&#45;&gt;.outputs</title>
<path fill="none" stroke="black" d="M379,-72.77C379,-67.83 379,-56.9 379,-46.17"/>
<polygon fill="black" stroke="black" points="382.5,-46.15 379,-36.15 375.5,-46.15 382.5,-46.15"/>
</g>
<!-- 18&#45;&gt;17 -->
<g id="edge20" class="edge">
<title>18&#45;&gt;17</title>
<path fill="none" stroke="black" d="M462.67,-116.89C438.25,-105.4 407.59,-90.96 391,-83.15"/>
<polygon fill="black" stroke="black" points="392.24,-79.86 381.7,-78.77 389.25,-86.2 392.24,-79.86"/>
</g>
<!-- 20&#45;&gt;17 -->
<g id="edge30" class="edge">
<title>20&#45;&gt;17</title>
<path fill="none" stroke="black" d="M275.81,-116.89C307.09,-104.95 346.66,-89.85 366.48,-82.28"/>
<polygon fill="black" stroke="black" points="367.93,-85.47 376.02,-78.64 365.43,-78.93 367.93,-85.47"/>
</g>
</g>
</svg>
